<svg id="Calque_1" data-name="Calque 1" xmlns="http://www.w3.org/2000/svg" viewBox="0 0 500 500" fill="none">
  <style>
    path {
      fill: #000;
    }
    @media (prefers-color-scheme: dark) {
      path {
        fill: #fff;
      }
    }
  </style>
  <path fill-rule="evenodd"
    clip-rule="evenodd" d="M204.94,29v.78q-10.71,7.59-10.7,31.35v268l-2.36,2.09H143.56q-21.42,0-26.38-11.49l-.78-3.66-.78-139.21V90.93q0-11.49,35.26-23.24Q192.4,31.9,195,31.9ZM117.18,332.8q9.15,5.74,14.89,5.75H249.35q31.86,0,31.86,10.18,0,4.44-28.73,31.87-25.86,35-41,35-21.93,0-91.67-75ZM314.91,22.5l3.91,2.87-3.13,11v6.53q0,10.46,33.43,40.75,14.11,19.59,14.11,37.09,0,25.61-30.3,35-3.66,1.56-11.49,1.57-20.91,0-31.35-19.85-4.69-29.52-9.66-35.53l.78-.78H282q63.19,3.91,63.2,24,0,12.28-14.1,17.5l-7.31,1.57q-18-2.88-18-13.85,0-7.31,13.05-9.66a11.1,11.1,0,0,1,9.93,5.22V128l-2.35,2.35H323l-2.35-1.56h-3.39l-2.35,2.09v.78q2.34,4.44,8.88,4.44,12.27-1,12.27-11Q332.4,115,319.61,115q-20.37,2.88-20.37,15.41v4.18q0,10.45,20.37,14.63h6.79q18,0,25.34-19.59v-7.31q0-23.25-76.27-27.69L246.74,93h-41l-2.35-2.09V51q3.39-23.51,26.12-23.51h45.18Q300.79,27.46,314.91,22.5ZM247.52,206.12h.78q8.35,9.4,19.85,9.4,42.57,1.83,48.32,10.19,58.25,45.19,58.25,65.56v.78c0,3.49-.87,5.4-2.61,5.75q-7.32-15.41-36.83-15.41H239.42q-21.15,0-28.73-15.93v-.79q0-10.19,23.77-34.22Zm46.75,84.36H341q20.37,0,28,15.42l1.56,8.61v5.75q0,65.82,13.84,113.62-.78,2.87-3.13,2.87-14.1-3.66-23-3.65h-5.75q-20.37,0-43.36,26.12-25.34,18.27-52.5,18.28-30.3,0-37.87-34.22,0-19.32,21.42-29.25l38.39-7,1.83-1.57L282,407q0,38.91-18.81,53.8l-9.14,2.09q-15.93,0-19.59-19.59,3.14-15.93,14.89-15.93,11.22,3.91,11.23,11.49,0,6.53-7.31,9.67-3.14,0-3.14-3.66h-.78l2.35-4.44v-2.35L249.35,436h-1.83q-3.92,1.83-3.92,5.75v3.65q2.09,8.88,8.88,8.88h3.4q7.83,0,10.45-12.53v-4.18q-3.93-16.2-18-16.2h-1.56q-18.81,3.66-18.81,21.94,5.22,25.61,25.34,25.6h1.56q21.94,0,30.56-32.91,6.53-39.44,6.53-99.51l-.78-19.07.78-25.34Z"/></svg>